<svg xmlns="http://www.w3.org/2000/svg" width="235" height="72" fill="none" viewBox="0 0 235 72"><style>@media (prefers-color-scheme:dark){.a{fill:#fff}}</style><g clip-path="url(#a)"><path class="a" fill="#131516" d="M6.423 0H6.3C2.826 0 0 2.982 0 6.648v46.044l.002.177c.09 3.584 2.88 6.47 6.298 6.47h31.06l10.6 11.192C48.928 71.551 50.025 72 51.1 72l.135-.002c2.15-.075 3.85-1.933 3.85-4.576v-8.076H65.7c3.474 0 6.3-2.982 6.3-6.648V20.126c0-3.386-2.38-5.766-5.878-6.58z"/><path fill="#bef264" d="m6.186 2.444 59.27 13.449c2.643.565 4.23 2.112 4.23 4.233v32.572c0 2.317-1.79 4.206-3.986 4.206H52.77v10.518c0 1.353-.738 2.136-1.671 2.136-.479 0-.983-.206-1.502-.753L38.32 56.898H6.299c-2.195 0-3.985-1.889-3.985-4.206V6.648c0-2.22 1.644-4.048 3.714-4.197z"/><path fill="#131516" d="M56.313 24.498c-.303.2-.395.67-.206 1.047s.587.516.883.318a1.5 1.5 0 0 1 1.124-.237c.382.064.743.277 1.046.617.295.341.493.77.571 1.22a2.7 2.7 0 0 1-.065 1.217l-.048.146c-.139.373.002.827.312 1.02.31.19.671.037.804-.343.268-.72.324-1.51.191-2.27a4.33 4.33 0 0 0-.954-2.065c-.5-.583-1.119-.942-1.761-1.06a2.56 2.56 0 0 0-1.77.312zM22.407 19.98c.436.35.532.955.222 1.35-.291.37-.85.426-1.284.139l-.08-.058a3.3 3.3 0 0 0-1.723-.694 2.8 2.8 0 0 0-1.739.4 2.5 2.5 0 0 0-1.055 1.358 2.76 2.76 0 0 0 .014 1.633l.052.152c.194.524-.073 1.064-.618 1.209a1.145 1.145 0 0 1-1.345-.684c-.394-1.015-.423-2.084-.119-3.032a4.2 4.2 0 0 1 1.814-2.314c.88-.549 1.929-.759 2.97-.665a5.5 5.5 0 0 1 2.718 1.07z"/><path fill="#131516" d="M25.504 40.941a23.94 23.94 0 0 1-6.849-16.804c-.017-.27.065-.539.229-.75.4-.514 1.182-.573 1.747-.142 6.554 5.05 13.612 7.741 20.187 8.257 5.96.468 11.556-.862 16.195-3.872l.295-.194a.64.64 0 0 1 .458-.103c.439.062.764.542.737 1.058-.26 5.154-2.214 9.73-5.284 13.066-3.192 3.483-7.702 5.733-12.885 5.822-5.43.1-10.633-2.178-14.617-6.125z"/><path fill="#fff" d="M21.273 26.586a21.6 21.6 0 0 0 2.547 8.172c3.282 1.932 7.374 2.913 12.26 3.374-3.31.31-7.173.163-10.124-.182q.578.716 1.214 1.376c3.556 3.679 8.264 5.854 13.233 5.827 4.685-.024 8.773-2.017 11.681-5.13q.457-.489.877-1.015c-.928.138-1.92.19-3.07.166l-.469-.014-.487-.021-.25-.014-.517-.033-.267-.018-.55-.044-.572-.051-.599-.059-.946-.1-1.01-.115c4.556-.112 8.318-.883 10.816-3.005a19 19 0 0 0 1.72-5.691c-4.65 2.762-10.149 4.01-16.005 3.626-6.174-.4-12.772-2.61-19.086-6.787l-.403-.27z"/></g><path class="a" fill="#131516" d="M107.423 55.998V33.756h5.821V27.44h-5.821v-1.72c0-2.251 1.043-3.404 3.24-3.404h1.922V16h-3.075c-5.767 0-9.501 3.844-9.501 9.61v1.83H96v6.316h4.009v22.242zM127.695 26c8.568 0 14.499 6.81 14.499 15.047 0 .824-.055 1.703-.22 2.636h-21.363c.824 3.35 3.35 5.711 7.085 5.711 3.185 0 5.656-1.647 6.974-3.844l5.766 4.339c-2.306 3.57-7.084 6.096-12.74 6.096-8.843 0-14.773-6.7-14.773-14.938S119.128 26 127.695 26m-.109 6.37c-3.515 0-6.151 2.362-6.975 5.767h14.114c-.824-3.186-3.515-5.767-7.139-5.767M158.464 26c8.567 0 14.498 6.81 14.498 15.047 0 .824-.055 1.703-.22 2.636H151.38c.823 3.35 3.349 5.711 7.084 5.711 3.185 0 5.656-1.647 6.974-3.844l5.767 4.339c-2.307 3.57-7.085 6.096-12.741 6.096-8.842 0-14.773-6.7-14.773-14.938S149.897 26 158.464 26m-.11 6.37c-3.515 0-6.151 2.362-6.974 5.767h14.113c-.823-3.186-3.515-5.767-7.139-5.767M204.993 16v40h-7.194v-5.44c-1.537 3.24-4.119 5.382-9.226 5.382-7.853 0-14.114-6.645-14.114-14.882s6.261-14.993 14.114-14.993c4.888 0 7.469 1.977 9.007 4.998V16zm-15.212 16.767c-4.723 0-7.908 3.79-7.908 8.238 0 4.338 3.186 8.237 7.908 8.237 4.888 0 8.018-3.734 8.018-8.182s-3.13-8.293-8.018-8.293M215.334 56V27.534h-7.414V56zm-3.735-30.463c2.581 0 4.448-1.922 4.448-4.394 0-2.361-1.867-4.338-4.448-4.338-2.526 0-4.448 1.977-4.448 4.338 0 2.417 1.922 4.394 4.448 4.394m22.356 30.449v-6.483h-3.075c-1.428 0-2.307-.824-2.307-2.636V33.851h5.885v-6.316h-5.885V21l-7.414.77v5.765h-4.009v6.315h4.009v13.4c0 6.206 3.076 8.735 8.732 8.735z"/><defs><clipPath id="a"><path fill="#fff" d="M0 0h72v72H0z"/></clipPath></defs></svg>